<?xml version="1.0" encoding="UTF-8"?>
<svg version="1.1" xmlns="http://www.w3.org/2000/svg" width="512" height="512">
<path d="M0 0 C1.01790619 0.00215515 2.03581238 0.0043103 3.08456421 0.00653076 C17.69363523 0.05620146 32.02575853 0.30709809 46.375 3.3125 C47.34985352 3.51117676 48.32470703 3.70985352 49.32910156 3.91455078 C97.7109774 14.03517194 141.69928269 35.9516877 177.375 70.3125 C178.3640332 71.26068604 178.3640332 71.26068604 179.37304688 72.22802734 C188.86130305 81.37247479 197.6012044 90.66984009 205.375 101.3125 C206.23306152 102.46355017 207.09113451 103.61459177 207.94921875 104.765625 C213.98736829 112.95680614 219.34595521 121.47054105 224.375 130.3125 C224.73948242 130.94430176 225.10396484 131.57610352 225.47949219 132.22705078 C247.08534998 169.97532572 256.85198095 212.74189997 256.6875 255.9375 C256.68534485 256.95540619 256.6831897 257.97331238 256.68096924 259.02206421 C256.63129854 273.63113523 256.38040191 287.96325853 253.375 302.3125 C253.07698486 303.77478027 253.07698486 303.77478027 252.77294922 305.26660156 C242.65232806 353.6484774 220.7358123 397.63678269 186.375 433.3125 C185.74287598 433.97185547 185.11075195 434.63121094 184.45947266 435.31054688 C175.31502521 444.79880305 166.01765991 453.5387044 155.375 461.3125 C154.22394983 462.17056152 153.07290823 463.02863451 151.921875 463.88671875 C143.73224019 469.92427396 135.22961724 475.30707302 126.375 480.3125 C125.66778809 480.7146875 124.96057617 481.116875 124.23193359 481.53125 C101.09654164 494.5566741 75.92537591 503.30551461 49.9375 508.625 C49.21860596 508.77235596 48.49971191 508.91971191 47.7590332 509.0715332 C33.08339502 511.86090125 18.55831162 512.66142619 3.64770508 512.62817383 C0.70811513 512.6250221 -2.2304558 512.64854926 -5.16992188 512.67382812 C-18.54306192 512.71848737 -31.43916711 511.51301542 -44.625 509.3125 C-46.33055054 509.03031616 -46.33055054 509.03031616 -48.07055664 508.74243164 C-91.33802759 500.97044532 -132.38793216 480.98345309 -165.625 452.3125 C-166.37007813 451.67828125 -167.11515625 451.0440625 -167.8828125 450.390625 C-181.38779833 438.57948485 -194.05918743 425.82889772 -204.625 411.3125 C-205.48149066 410.16255169 -206.33826433 409.01281411 -207.1953125 407.86328125 C-213.23534209 399.67315742 -218.61867614 391.16870382 -223.625 382.3125 C-224.0271875 381.60528809 -224.429375 380.89807617 -224.84375 380.16943359 C-237.8691741 357.03404164 -246.61801461 331.86287591 -251.9375 305.875 C-252.08485596 305.15610596 -252.23221191 304.43721191 -252.3840332 303.6965332 C-255.35789088 288.05024391 -255.99800362 272.57681954 -255.9375 256.6875 C-255.93534485 255.66959381 -255.9331897 254.65168762 -255.93096924 253.60293579 C-255.88129854 238.99386477 -255.63040191 224.66174147 -252.625 210.3125 C-252.42632324 209.33764648 -252.22764648 208.36279297 -252.02294922 207.35839844 C-241.90232806 158.9765226 -219.9858123 114.98821731 -185.625 79.3125 C-184.99287598 78.65314453 -184.36075195 77.99378906 -183.70947266 77.31445312 C-174.56502521 67.82619695 -165.26765991 59.0862956 -154.625 51.3125 C-153.47394983 50.45443848 -152.32290823 49.59636549 -151.171875 48.73828125 C-142.98224019 42.70072604 -134.47961724 37.31792698 -125.625 32.3125 C-124.91778809 31.9103125 -124.21057617 31.508125 -123.48193359 31.09375 C-100.34654164 18.0683259 -75.17537591 9.31948539 -49.1875 4 C-48.46860596 3.85264404 -47.74971191 3.70528809 -47.0090332 3.5534668 C-31.36274391 0.57960912 -15.88931954 -0.06050362 0 0 Z " fill="#F44336" transform="translate(255.625,-0.3125)"/>
<path d="M0 0 C5.78830214 2.64105041 9.28546147 6.32487279 11.9921875 12.125 C13.41128893 18.70447028 13.5120629 24.447546 10.11328125 30.421875 C7.26755153 34.17482645 3.52294901 36.6555653 -0.3203125 39.3125 C-25.3376698 56.66661436 -42.92638008 77.31342854 -53.3203125 106.3125 C-53.62453125 107.07175781 -53.92875 107.83101563 -54.2421875 108.61328125 C-59.28475886 121.86289478 -59.6240754 136.01162449 -59.6953125 150 C-59.70307709 150.69416016 -59.71084167 151.38832031 -59.71884155 152.10351562 C-59.83688342 165.5045297 -58.00407695 178.16295774 -53.1328125 190.75 C-52.83238037 191.54148437 -52.53194824 192.33296875 -52.22241211 193.1484375 C-47.41313246 205.52116622 -41.71053128 216.95582369 -33.3203125 227.3125 C-32.88203125 227.86147949 -32.44375 228.41045898 -31.9921875 228.97607422 C-12.3957013 253.37073853 16.72291309 271.53462901 48.06640625 275.80859375 C55.47822759 276.60047291 62.92110859 276.64280978 70.3671875 276.6875 C71.06189148 276.69544586 71.75659546 276.70339172 72.47235107 276.71157837 C86.47224831 276.83449321 99.43393323 274.61441284 112.6171875 269.6875 C113.55103271 269.34122559 114.48487793 268.99495117 115.44702148 268.63818359 C129.36630778 263.308002 141.25330574 255.80425628 152.6796875 246.3125 C153.55109375 245.60609375 154.4225 244.8996875 155.3203125 244.171875 C172.53433998 229.55619129 184.34890539 208.7809705 191.4921875 187.625 C191.92724609 186.34326904 191.92724609 186.34326904 192.37109375 185.03564453 C196.13498304 173.45769027 197.05630558 162.37003208 196.9921875 150.25 C196.99003235 149.51950439 196.9878772 148.78900879 196.98565674 148.03637695 C196.81586402 112.18165029 183.70691186 81.21117592 158.6796875 55.3125 C151.74722529 48.54564544 144.07681094 42.92443035 135.79150391 37.92260742 C130.88054556 34.85009332 126.82892748 31.0020695 125.0625 25.33105469 C123.85562847 18.96727035 124.36164956 12.92764114 127.6796875 7.3125 C131.35326354 3.30173582 135.59051181 -0.15908837 141.0546875 -1.09375 C159.86593409 -1.76558024 175.97108987 15.60085047 189.11328125 27.51953125 C220.28798662 57.47169916 238.08168594 101.4053936 238.96313477 144.26708984 C239.31533387 183.4588596 227.55070596 222.65183461 202.6796875 253.3125 C202.24366211 253.85003906 201.80763672 254.38757813 201.35839844 254.94140625 C172.73769195 290.01041689 131.92698629 313.09494548 86.640625 317.84375 C69.13113924 319.37387388 51.93182369 318.64402199 34.6796875 315.3125 C33.98117676 315.17859863 33.28266602 315.04469727 32.56298828 314.90673828 C-10.27806755 306.29678187 -48.68014621 279.31141894 -72.83666992 243.20410156 C-98.26849639 204.11267924 -107.0768223 158.32914865 -98.10644531 112.52905273 C-92.83024518 87.83698006 -82.16632298 64.04203679 -66.3203125 44.3125 C-65.65733154 43.48250488 -65.65733154 43.48250488 -64.98095703 42.63574219 C-52.02796948 26.56980733 -23.66102763 -7.01067485 0 0 Z " fill="#FEFDFD" transform="translate(187.3203125,107.6875)"/>
<path d="M0 0 C6.12212172 3.612865 10.47282681 8.26220896 12.74609375 15.08984375 C13.00336266 17.71020126 13.00336266 17.71020126 13.01351929 20.56585693 C13.02204926 21.65356384 13.03057922 22.74127075 13.03936768 23.86193848 C13.0384613 25.0454187 13.03755493 26.22889893 13.03662109 27.44824219 C13.04333832 28.70247986 13.05005554 29.95671753 13.05697632 31.2489624 C13.07270816 34.68311957 13.07933078 38.11703485 13.08060789 41.55121136 C13.08203175 43.6999661 13.08630584 45.84869567 13.09160233 47.99744415 C13.11009712 55.50319522 13.11827391 63.00887534 13.11669922 70.51464844 C13.115499 77.4953126 13.13657904 84.47566699 13.16818655 91.45625281 C13.19440249 97.46155484 13.20506425 103.46675604 13.2037884 109.4721148 C13.20328018 113.05339724 13.2088845 116.63440447 13.2301445 120.21562958 C13.25324044 124.21525472 13.24397369 128.21419341 13.23193359 132.21386719 C13.24317261 133.38925049 13.25441162 134.56463379 13.26599121 135.77563477 C13.20789857 143.38597956 12.3976164 150.23703375 6.96674156 155.96728134 C1.72637432 160.7185732 -2.55038049 162.62572797 -9.65625 162.46875 C-15.2823374 161.64810266 -19.39411711 158.27912242 -23.12890625 154.15234375 C-27.87960601 147.30574703 -27.55061343 140.65746418 -27.54443359 132.60205078 C-27.55115082 131.34606079 -27.55786804 130.0900708 -27.56478882 128.79602051 C-27.58240141 125.36204423 -27.58714216 121.92816772 -27.58842039 118.49415064 C-27.58984514 116.34556583 -27.59412082 114.19700613 -27.59941483 112.04842758 C-27.61789877 104.54382475 -27.62608741 97.03929281 -27.62451172 89.53466797 C-27.62331046 82.55339522 -27.64441373 75.5724317 -27.67599905 68.59123719 C-27.70219886 62.58508138 -27.71287748 56.57902635 -27.7116009 50.57281387 C-27.71109239 46.99101935 -27.71671365 43.40949989 -27.737957 39.8277626 C-27.76101977 35.83043713 -27.751796 31.83379967 -27.73974609 27.83642578 C-27.75098511 26.65901825 -27.76222412 25.48161072 -27.77380371 24.26852417 C-27.71472891 16.54936922 -26.73078422 11.03945513 -21.47265625 5.06640625 C-20.90546875 4.62039062 -20.33828125 4.174375 -19.75390625 3.71484375 C-19.18671875 3.25335938 -18.61953125 2.791875 -18.03515625 2.31640625 C-12.48896502 -1.50268157 -6.40675879 -2.58713137 0 0 Z " fill="#FEFBFB" transform="translate(263.25390625,86.91015625)"/>
</svg>
